<svg width="22" height="22" viewBox="0 0 22 22" fill="none" xmlns="http://www.w3.org/2000/svg">
<path d="M14.3278 3.30352V20.775M7.68302 18.4715V1.05345M7.66136 1L1.40106 3.11111C1.28292 3.14243 1.179 3.21231 1.10623 3.30936C1.03346 3.40641 0.99613 3.52491 1.00032 3.64557V20.2138C1.00032 20.3556 1.05737 20.4915 1.15893 20.5917C1.26049 20.692 1.39824 20.7483 1.54187 20.7483H1.72058L7.6776 18.4715L14.3386 20.775L20.5989 18.6372C20.7171 18.6058 20.821 18.536 20.8938 18.4389C20.9665 18.3419 21.0039 18.2234 20.9997 18.1027V1.53446C20.9997 1.39271 20.9426 1.25677 20.8411 1.15654C20.7395 1.05631 20.6018 1 20.4581 1L20.2794 1.03741L14.3224 3.2768L7.66136 1Z" stroke="#F3F821" stroke-linecap="round" stroke-linejoin="round"/>
</svg>
