<svg width="35" height="35" viewBox="0 0 35 35" fill="none" xmlns="http://www.w3.org/2000/svg">
<circle cx="17.5" cy="17.5" r="17" stroke="#FFD53F"/>
<path d="M17.5 7.375C11.9177 7.375 7.375 11.9177 7.375 17.5C7.375 23.0823 11.9177 27.625 17.5 27.625C23.0823 27.625 27.625 23.0823 27.625 17.5C27.625 11.9177 23.0823 7.375 17.5 7.375ZM17.5 9.0625C22.1702 9.0625 25.9375 12.8298 25.9375 17.5C25.9396 19.5199 25.2152 21.4732 23.8968 23.0034C22.5783 24.5337 20.7535 25.5388 18.7555 25.8354V19.9604H21.1585L21.5357 17.5194H18.7555V16.1863C18.7555 15.1738 19.0888 14.2735 20.0363 14.2735H21.5593V12.1439C21.2918 12.1076 20.7257 12.0291 19.6558 12.0291C17.4215 12.0291 16.112 13.2087 16.112 15.8969V17.5194H13.8153V19.9604H16.112V25.8143C14.1417 25.49 12.3508 24.4757 11.0594 22.9526C9.768 21.4295 9.06021 19.4969 9.0625 17.5C9.0625 12.8298 12.8298 9.0625 17.5 9.0625Z" fill="#FFD53F"/>
</svg>
