<svg width="35" height="35" viewBox="0 0 35 35" fill="none" xmlns="http://www.w3.org/2000/svg">
<circle cx="17.5" cy="17.5" r="17" stroke="#FFD53F"/>
<path d="M16.999 13.377C15.7726 13.377 14.5965 13.8641 13.7293 14.7313C12.8622 15.5985 12.375 16.7746 12.375 18.001C12.375 19.2273 12.8622 20.4034 13.7293 21.2706C14.5965 22.1378 15.7726 22.625 16.999 22.625C18.2254 22.625 19.4015 22.1378 20.2687 21.2706C21.1358 20.4034 21.623 19.2273 21.623 18.001C21.623 16.7746 21.1358 15.5985 20.2687 14.7313C19.4015 13.8641 18.2254 13.377 16.999 13.377ZM16.999 21.004C16.2023 21.004 15.4382 20.6875 14.8749 20.1241C14.3115 19.5607 13.995 18.7967 13.995 18C13.995 17.2032 14.3115 16.4392 14.8749 15.8758C15.4382 15.3124 16.2023 14.996 16.999 14.996C17.7957 14.996 18.5598 15.3124 19.1231 15.8758C19.6865 16.4392 20.003 17.2032 20.003 18C20.003 18.7967 19.6865 19.5607 19.1231 20.1241C18.5598 20.6875 17.7957 21.004 16.999 21.004Z" fill="#FFD53F"/>
<path d="M21.806 14.2849C22.4014 14.2849 22.884 13.8023 22.884 13.2069C22.884 12.6115 22.4014 12.1289 21.806 12.1289C21.2107 12.1289 20.728 12.6115 20.728 13.2069C20.728 13.8023 21.2107 14.2849 21.806 14.2849Z" fill="#FFD53F"/>
<path d="M25.533 12.1109C25.3015 11.5131 24.9477 10.9702 24.4943 10.5169C24.041 10.0637 23.4979 9.71015 22.9 9.47888C22.2003 9.21624 21.4612 9.07422 20.714 9.05888C19.751 9.01688 19.446 9.00488 17.004 9.00488C14.562 9.00488 14.249 9.00488 13.294 9.05888C12.5474 9.07344 11.8088 9.21548 11.11 9.47888C10.512 9.70988 9.96878 10.0634 9.51535 10.5166C9.06192 10.9699 8.70824 11.5129 8.47701 12.1109C8.21432 12.8105 8.07263 13.5497 8.05801 14.2969C8.01501 15.2589 8.00201 15.5639 8.00201 18.0069C8.00201 20.4489 8.00201 20.7599 8.05801 21.7169C8.07301 22.4649 8.21401 23.2029 8.47701 23.9039C8.70889 24.5016 9.06291 25.0445 9.51645 25.4977C9.96999 25.9509 10.5131 26.3045 11.111 26.5359C11.8084 26.8091 12.5474 26.9613 13.296 26.9859C14.259 27.0279 14.564 27.0409 17.006 27.0409C19.448 27.0409 19.761 27.0409 20.716 26.9859C21.4631 26.9707 22.2022 26.829 22.902 26.5669C23.4998 26.3351 24.0426 25.9812 24.496 25.5279C24.9493 25.0745 25.3032 24.5316 25.535 23.9339C25.798 23.2339 25.939 22.4959 25.954 21.7479C25.997 20.7859 26.01 20.4809 26.01 18.0379C26.01 15.5949 26.01 15.2849 25.954 14.3279C25.9424 13.5702 25.7999 12.8201 25.533 12.1109ZM24.315 21.6429C24.3086 22.2192 24.2034 22.7901 24.004 23.3309C23.8538 23.7198 23.6239 24.0729 23.3291 24.3676C23.0342 24.6622 22.681 24.8919 22.292 25.0419C21.7572 25.2403 21.1924 25.3455 20.622 25.3529C19.672 25.3969 19.404 25.4079 16.968 25.4079C14.53 25.4079 14.281 25.4079 13.313 25.3529C12.7429 25.3459 12.1783 25.2407 11.644 25.0419C11.2537 24.8929 10.899 24.6636 10.6029 24.3688C10.3068 24.0741 10.0758 23.7205 9.92501 23.3309C9.72846 22.7959 9.62333 22.2317 9.61401 21.6619C9.57101 20.7119 9.56101 20.4439 9.56101 18.0079C9.56101 15.5709 9.56101 15.3219 9.61401 14.3529C9.62048 13.7769 9.72567 13.2063 9.92501 12.6659C10.23 11.8769 10.855 11.2559 11.644 10.9539C12.1786 10.756 12.743 10.6508 13.313 10.6429C14.264 10.5999 14.531 10.5879 16.968 10.5879C19.405 10.5879 19.655 10.5879 20.622 10.6429C21.1924 10.6497 21.7574 10.755 22.292 10.9539C22.6809 11.1042 23.0342 11.3341 23.329 11.6289C23.6238 11.9237 23.8537 12.277 24.004 12.6659C24.2006 13.2008 24.3057 13.765 24.315 14.3349C24.358 15.2859 24.369 15.5529 24.369 17.9899C24.369 20.4259 24.369 20.6879 24.326 21.6439H24.315V21.6429Z" fill="#FFD53F"/>
</svg>
