<svg width="20" height="20" viewBox="0 0 20 20" fill="none" xmlns="http://www.w3.org/2000/svg">
<path d="M10.0005 0C4.48518 0 0 4.48646 0 10C0 15.5135 4.48518 20 10.0005 20C15.5138 20 20 15.5135 20 10C20 4.48646 15.5138 0 10.0005 0ZM18.5292 10C18.5292 11.951 17.8668 13.75 16.7627 15.1875C16.4502 14.9437 16.1179 14.2844 16.4304 13.601C16.746 12.9135 16.8283 11.3219 16.7554 10.7021C16.6866 10.0833 16.3648 8.59271 15.4909 8.57812C14.618 8.56563 14.0191 8.27708 13.5003 7.24167C12.4244 5.0875 15.52 4.67396 14.444 3.48229C14.143 3.14687 12.5868 4.85938 12.3587 2.57708C12.3441 2.41354 12.4993 2.16875 12.7087 1.91458C16.0877 3.05 18.5292 6.24479 18.5292 10ZM8.82871 1.55521C8.62455 1.95312 8.08604 2.11458 7.75897 2.41354C7.04651 3.05833 6.74027 2.96875 6.35696 3.5875C5.97052 4.20625 4.72475 5.09687 4.72475 5.54479C4.72475 5.99271 5.35389 6.51979 5.66845 6.41771C5.98302 6.31354 6.81319 6.31979 7.30066 6.49062C7.78918 6.66354 11.3775 6.83646 10.2338 9.86979C9.87136 10.8344 8.2829 10.6719 7.86001 12.2688C7.79647 12.5031 7.57669 13.5042 7.56315 13.8313C7.53711 14.3375 7.92146 16.2458 7.43295 16.2458C6.94235 16.2458 5.62262 14.5385 5.62262 14.2292C5.62262 13.9198 5.28097 12.8354 5.28097 11.9062C5.28097 10.9781 3.69981 10.9927 3.69981 9.75833C3.69981 8.64583 4.55705 8.09167 4.36436 7.55729C4.17582 7.02604 2.66965 7.00833 2.04156 6.94271C2.59074 5.5217 3.50939 4.27312 4.70258 3.32599C5.89577 2.37887 7.32021 1.76755 8.82871 1.55521ZM7.31733 18.0938C7.8298 17.8229 7.88188 17.4729 8.34644 17.4552C8.87766 17.4312 9.30993 17.2479 9.90886 17.1156C10.4401 17 11.3911 16.4604 12.2275 16.3917C12.9337 16.3344 14.3263 16.4281 14.7013 17.1094C13.6261 17.8234 12.4023 18.2832 11.1229 18.4538C9.84351 18.6243 8.54206 18.5012 7.31733 18.0938Z" fill="#F3F821" fill-opacity="0.6"/>
</svg>
