<svg width="23" height="19" viewBox="0 0 23 19" fill="none" xmlns="http://www.w3.org/2000/svg">
<path d="M2.61241 1.83385L2.61227 1.83395C1.68569 2.51741 1.22561 3.61003 1.38505 4.69922L1.38507 4.69934C1.79786 7.52421 3.92305 10.4679 7.93931 13.5163M2.61241 1.83385L16.4643 11.0864C17.1556 10.5641 18.1242 10.5273 18.8596 10.9797L18.8601 10.98L21.0155 12.3026C21.8652 12.8247 22.1831 13.853 21.7544 14.7184L21.7543 14.7186L21.1778 15.8841C20.6791 16.8906 19.6446 17.5704 18.4613 17.6597L18.461 17.6597C15.4434 17.8892 11.9469 16.5577 7.93931 13.5163M2.61241 1.83385L3.68252 1.04393C3.68254 1.04391 3.68256 1.0439 3.68258 1.04389C3.68262 1.04385 3.68267 1.04382 3.68271 1.04378C4.49835 0.442475 5.65422 0.519257 6.37994 1.19294C6.37997 1.19297 6.38001 1.19301 6.38004 1.19304L8.20603 2.88921L2.61241 1.83385ZM7.93931 13.5163L7.63478 13.8998M7.93931 13.5163L7.63478 13.8998M7.63478 13.8998C11.6888 16.9766 15.315 18.394 18.5177 18.1504L0.882396 4.75211C1.32308 7.76783 3.57481 10.8183 7.63478 13.8998ZM14.214 12.7903L16.464 11.0866L8.2062 2.88937C8.8311 3.4705 8.99521 4.3659 8.60009 5.10948C8.60008 5.10949 8.60007 5.10951 8.60007 5.10952C8.60003 5.10959 8.59999 5.10967 8.59995 5.10975L7.21768 7.70599L7.09572 7.93506L7.22682 8.16773C7.85434 9.28144 8.76471 10.2577 9.94106 11.0998C11.0733 11.9237 12.3801 12.5264 13.7828 12.875L14.0232 12.9348L14.214 12.7903Z" stroke="#F3F821"/>
</svg>
