<svg width="35" height="35" viewBox="0 0 35 35" fill="none" xmlns="http://www.w3.org/2000/svg">
<circle cx="17.5" cy="17.5" r="17" stroke="#FFD53F"/>
<path fill-rule="evenodd" clip-rule="evenodd" d="M24.1437 10.8625C23.2786 9.99207 22.2494 9.3019 21.1157 8.832C19.982 8.3621 18.7663 8.1218 17.5391 8.12503C12.3945 8.12503 8.20312 12.3125 8.20312 17.4571C8.19923 19.0952 8.62887 20.7051 9.44844 22.1235L8.125 26.9602L13.075 25.6602C14.4437 26.4058 15.9773 26.7971 17.5359 26.7985H17.5398C22.6852 26.7985 26.8719 22.6118 26.875 17.4633C26.875 14.9703 25.9047 12.6266 24.1437 10.8618V10.8625ZM17.5391 25.2211H17.5359C16.1465 25.2211 14.7826 24.848 13.5867 24.1407L13.3031 23.9727L10.3641 24.7422L11.1484 21.8789L10.9656 21.586C10.188 20.3494 9.77626 18.9179 9.77813 17.4571C9.77813 13.1821 13.2602 9.70316 17.5422 9.70316C18.5613 9.70061 19.5707 9.90024 20.5121 10.2905C21.4535 10.6807 22.3082 11.2538 23.0266 11.9766C23.7485 12.6959 24.3208 13.5511 24.7103 14.4929C25.0998 15.4346 25.2989 16.4442 25.2961 17.4633C25.2961 21.7422 21.8141 25.2211 17.5383 25.2211H17.5391ZM21.793 19.4102C21.5609 19.2946 20.4133 18.7305 20.2 18.6539C19.9867 18.5743 19.8305 18.5375 19.675 18.7696C19.5188 19.0039 19.0734 19.5297 18.9367 19.6852C18.8023 19.8375 18.6648 19.8594 18.4328 19.743C18.1984 19.6274 17.4477 19.3797 16.5562 18.5836C15.8633 17.9664 15.3938 17.2008 15.2594 16.9688C15.1219 16.7344 15.2437 16.6094 15.3602 16.4922C15.4664 16.3891 15.5945 16.2211 15.7109 16.0836C15.8266 15.95 15.8672 15.8524 15.9453 15.6961C16.0219 15.5407 15.9828 15.4032 15.9242 15.2875C15.8664 15.1719 15.4 14.0211 15.2047 13.5539C15.0148 13.0993 14.8227 13.1633 14.6797 13.1547C14.5453 13.1485 14.3898 13.1485 14.2344 13.1485C14.0781 13.1485 13.825 13.2063 13.6109 13.4414C13.3977 13.6735 12.7961 14.2383 12.7961 15.3852C12.7961 16.5328 13.632 17.643 13.7492 17.7993C13.8648 17.9516 15.3937 20.3071 17.7336 21.318C18.1672 21.5055 18.6105 21.6696 19.0617 21.8094C19.6203 21.986 20.1297 21.9618 20.5328 21.9032C20.9812 21.8368 21.9117 21.3391 22.107 20.793C22.3 20.25 22.3 19.7828 22.2414 19.6852C22.1836 19.5875 22.0281 19.5289 21.793 19.4102Z" fill="#FFD53F"/>
</svg>
