<svg width="157" height="50" viewBox="0 0 157 50" fill="none" xmlns="http://www.w3.org/2000/svg">
<path d="M36.8241 19.576C36.8241 20.7707 36.5361 21.8907 35.9601 22.936C35.4055 23.9813 34.5201 24.824 33.3041 25.464C32.1095 26.104 30.5948 26.424 28.7601 26.424H25.0161V35H20.5361V12.664H28.7601C30.4881 12.664 31.9601 12.9627 33.1761 13.56C34.3921 14.1573 35.2988 14.9787 35.8961 16.024C36.5148 17.0693 36.8241 18.2533 36.8241 19.576ZM28.5681 22.808C29.8055 22.808 30.7228 22.5307 31.3201 21.976C31.9175 21.4 32.2161 20.6 32.2161 19.576C32.2161 17.4 31.0001 16.312 28.5681 16.312H25.0161V22.808H28.5681ZM38.8529 26.072C38.8529 24.28 39.2049 22.6907 39.9089 21.304C40.6342 19.9173 41.6049 18.8507 42.8209 18.104C44.0582 17.3573 45.4342 16.984 46.9489 16.984C48.2715 16.984 49.4235 17.2507 50.4049 17.784C51.4075 18.3173 52.2075 18.9893 52.8049 19.8V17.272H57.3169V35H52.8049V32.408C52.2289 33.24 51.4289 33.9333 50.4049 34.488C49.4022 35.0213 48.2395 35.288 46.9169 35.288C45.4235 35.288 44.0582 34.904 42.8209 34.136C41.6049 33.368 40.6342 32.2907 39.9089 30.904C39.2049 29.496 38.8529 27.8853 38.8529 26.072ZM52.8049 26.136C52.8049 25.048 52.5915 24.12 52.1649 23.352C51.7382 22.5627 51.1622 21.9653 50.4369 21.56C49.7115 21.1333 48.9329 20.92 48.1009 20.92C47.2689 20.92 46.5009 21.1227 45.7969 21.528C45.0929 21.9333 44.5169 22.5307 44.0689 23.32C43.6422 24.088 43.4289 25.0053 43.4289 26.072C43.4289 27.1387 43.6422 28.0773 44.0689 28.888C44.5169 29.6773 45.0929 30.2853 45.7969 30.712C46.5222 31.1387 47.2902 31.352 48.1009 31.352C48.9329 31.352 49.7115 31.1493 50.4369 30.744C51.1622 30.3173 51.7382 29.72 52.1649 28.952C52.5915 28.1627 52.8049 27.224 52.8049 26.136ZM66.1724 20.024C66.7484 19.0853 67.495 18.3493 68.4124 17.816C69.351 17.2827 70.4177 17.016 71.6124 17.016V21.72H70.4284C69.0204 21.72 67.9537 22.0507 67.2284 22.712C66.5244 23.3733 66.1724 24.5253 66.1724 26.168V35H61.6924V17.272H66.1724V20.024ZM79.8459 20.952V29.528C79.8459 30.1253 79.9845 30.5627 80.2619 30.84C80.5605 31.096 81.0512 31.224 81.7339 31.224H83.8139V35H80.9979C77.2219 35 75.3339 33.1653 75.3339 29.496V20.952H73.2219V17.272H75.3339V12.888H79.8459V17.272H83.8139V20.952H79.8459ZM96.8601 17.016C98.9721 17.016 100.679 17.688 101.98 19.032C103.281 20.3547 103.932 22.2107 103.932 24.6V35H99.4521V25.208C99.4521 23.8 99.1001 22.7227 98.3961 21.976C97.6921 21.208 96.7321 20.824 95.5161 20.824C94.2788 20.824 93.2975 21.208 92.5721 21.976C91.8681 22.7227 91.5161 23.8 91.5161 25.208V35H87.0361V17.272H91.5161V19.48C92.1135 18.712 92.8708 18.1147 93.7881 17.688C94.7268 17.24 95.7508 17.016 96.8601 17.016ZM124.672 25.752C124.672 26.392 124.63 26.968 124.544 27.48H111.584C111.691 28.76 112.139 29.7627 112.928 30.488C113.718 31.2133 114.688 31.576 115.84 31.576C117.504 31.576 118.688 30.8613 119.392 29.432H124.224C123.712 31.1387 122.731 32.5467 121.28 33.656C119.83 34.744 118.048 35.288 115.936 35.288C114.23 35.288 112.694 34.9147 111.328 34.168C109.984 33.4 108.928 32.3227 108.16 30.936C107.414 29.5493 107.04 27.9493 107.04 26.136C107.04 24.3013 107.414 22.6907 108.16 21.304C108.907 19.9173 109.952 18.8507 111.296 18.104C112.64 17.3573 114.187 16.984 115.936 16.984C117.622 16.984 119.126 17.3467 120.448 18.072C121.792 18.7973 122.827 19.832 123.552 21.176C124.299 22.4987 124.672 24.024 124.672 25.752ZM120.032 24.472C120.011 23.32 119.595 22.4027 118.784 21.72C117.974 21.016 116.982 20.664 115.808 20.664C114.699 20.664 113.76 21.0053 112.992 21.688C112.246 22.3493 111.787 23.2773 111.616 24.472H120.032ZM132.422 20.024C132.998 19.0853 133.745 18.3493 134.662 17.816C135.601 17.2827 136.668 17.016 137.862 17.016V21.72H136.678C135.27 21.72 134.204 22.0507 133.478 22.712C132.774 23.3733 132.422 24.5253 132.422 26.168V35H127.942V17.272H132.422V20.024Z" fill="#151515"/>
<path d="M0 48H157" stroke="#F3F821" stroke-width="4"/>
</svg>
