<svg width="163" height="51" viewBox="0 0 163 51" fill="none" xmlns="http://www.w3.org/2000/svg">
<rect x="58.5" y="0.5" width="61" height="50" stroke="#F0F35C"/>
<path d="M28.8118 33.032H20.4278L19.0838 37H13.3558L21.4838 14.536H27.8198L35.9478 37H30.1558L28.8118 33.032ZM27.4038 28.808L24.6198 20.584L21.8678 28.808H27.4038ZM43.8935 21.672C44.4055 20.84 45.1415 20.168 46.1015 19.656C47.0615 19.144 48.1602 18.888 49.3975 18.888C50.8695 18.888 52.2028 19.2613 53.3975 20.008C54.5922 20.7547 55.5308 21.8213 56.2135 23.208C56.9175 24.5947 57.2695 26.2053 57.2695 28.04C57.2695 29.8747 56.9175 31.496 56.2135 32.904C55.5308 34.2907 54.5922 35.368 53.3975 36.136C52.2028 36.8827 50.8695 37.256 49.3975 37.256C48.1388 37.256 47.0402 37.0107 46.1015 36.52C45.1628 36.008 44.4268 35.336 43.8935 34.504V37H38.4215V13.32H43.8935V21.672ZM51.7015 28.04C51.7015 26.6747 51.3175 25.608 50.5495 24.84C49.8028 24.0507 48.8748 23.656 47.7655 23.656C46.6775 23.656 45.7495 24.0507 44.9815 24.84C44.2348 25.6293 43.8615 26.7067 43.8615 28.072C43.8615 29.4373 44.2348 30.5147 44.9815 31.304C45.7495 32.0933 46.6775 32.488 47.7655 32.488C48.8535 32.488 49.7815 32.0933 50.5495 31.304C51.3175 30.4933 51.7015 29.4053 51.7015 28.04Z" fill="#262626"/>
<path d="M66.4073 36.136L65.9331 37.0165L65.9387 37.0195L66.4073 36.136ZM63.1113 32.936L62.2421 33.4307L62.248 33.4407L63.1113 32.936ZM63.1432 23.24L64.0066 23.7447L64.0099 23.739L63.1432 23.24ZM66.4713 20.008L66.9398 20.8915L66.9398 20.8915L66.4713 20.008ZM75.9433 20.008L75.4747 20.8915L75.4747 20.8915L75.9433 20.008ZM79.2713 23.24L78.4046 23.739L78.408 23.7447L79.2713 23.24ZM79.2393 32.936L78.3783 32.4273L78.376 32.4313L79.2393 32.936ZM75.8793 36.136L75.4162 35.2496L75.4107 35.2525L75.8793 36.136ZM73.7993 31.368L73.0823 30.6709L73.0772 30.6761L73.0722 30.6814L73.7993 31.368ZM73.8313 24.776L73.0941 25.4517L73.0991 25.4572L73.1042 25.4626L73.8313 24.776ZM68.5513 24.776L69.2789 25.4621L69.2884 25.4517L68.5513 24.776ZM68.5193 31.368L67.7718 32.0324L67.7769 32.0381L67.7821 32.0437L68.5193 31.368ZM71.1433 36.256C69.541 36.256 68.1257 35.9154 66.8758 35.2525L65.9387 37.0195C67.5048 37.8499 69.2469 38.256 71.1433 38.256V36.256ZM66.8814 35.2555C65.6598 34.5978 64.6944 33.6627 63.9745 32.4313L62.248 33.4407C63.1494 34.9827 64.3813 36.1809 65.9332 37.0165L66.8814 35.2555ZM63.9803 32.4413C63.2899 31.2284 62.9273 29.7831 62.9273 28.072H60.9273C60.9273 30.0729 61.3539 31.8703 62.2422 33.4307L63.9803 32.4413ZM62.9273 28.072C62.9273 26.3891 63.2975 24.9575 64.0065 23.7447L62.28 22.7353C61.3676 24.2958 60.9273 26.0856 60.9273 28.072H62.9273ZM64.0099 23.739C64.7286 22.4907 65.7014 21.5482 66.9398 20.8915L66.0027 19.1245C64.4251 19.9612 63.1793 21.1733 62.2766 22.741L64.0099 23.739ZM66.9398 20.8915C68.1897 20.2286 69.605 19.888 71.2073 19.888V17.888C69.3109 17.888 67.5688 18.2941 66.0027 19.1245L66.9398 20.8915ZM71.2073 19.888C72.8095 19.888 74.2248 20.2286 75.4747 20.8915L76.4118 19.1245C74.8457 18.2941 73.1036 17.888 71.2073 17.888V19.888ZM75.4747 20.8915C76.7131 21.5482 77.6859 22.4907 78.4046 23.739L80.1379 22.741C79.2352 21.1733 77.9894 19.9612 76.4118 19.1245L75.4747 20.8915ZM78.408 23.7447C79.117 24.9575 79.4873 26.3891 79.4873 28.072H81.4873C81.4873 26.0856 81.0469 24.2958 80.1345 22.7353L78.408 23.7447ZM79.4873 28.072C79.4873 29.75 79.1086 31.1915 78.3783 32.4273L80.1002 33.4447C81.0339 31.8645 81.4873 30.0633 81.4873 28.072H79.4873ZM78.376 32.4313C77.6606 33.655 76.6796 34.5897 75.4162 35.2497L76.3423 37.0223C77.9376 36.189 79.1966 34.9904 80.1025 33.4407L78.376 32.4313ZM75.4107 35.2525C74.1608 35.9154 72.7455 36.256 71.1433 36.256V38.256C73.0396 38.256 74.7817 37.8499 76.3478 37.0195L75.4107 35.2525ZM71.1433 33.52C72.467 33.52 73.6143 33.0202 74.5263 32.0546L73.0722 30.6814C72.5335 31.2518 71.9102 31.52 71.1433 31.52V33.52ZM74.5162 32.0651C75.4985 31.0548 75.9193 29.6721 75.9193 28.072H73.9193C73.9193 29.3305 73.5934 30.1452 73.0823 30.6709L74.5162 32.0651ZM75.9193 28.072C75.9193 26.4792 75.5132 25.1005 74.5583 24.0894L73.1042 25.4626C73.6 25.9875 73.9193 26.8062 73.9193 28.072H75.9193ZM74.5684 24.1003C73.6743 23.1249 72.5318 22.624 71.2073 22.624V24.624C71.9733 24.624 72.5802 24.8911 73.0941 25.4517L74.5684 24.1003ZM71.2073 22.624C69.8679 22.624 68.7126 23.1201 67.8141 24.1003L69.2884 25.4517C69.7979 24.8959 70.4133 24.624 71.2073 24.624V22.624ZM67.8237 24.09C66.8836 25.087 66.4953 26.472 66.4953 28.072H68.4953C68.4953 26.7706 68.8109 25.9583 69.2788 25.462L67.8237 24.09ZM66.4953 28.072C66.4953 29.6505 66.8725 31.0206 67.7718 32.0324L69.2667 30.7036C68.8007 30.1794 68.4953 29.3522 68.4953 28.072H66.4953ZM67.7821 32.0437C68.6762 33.0191 69.8187 33.52 71.1433 33.52V31.52C70.3772 31.52 69.7703 31.2529 69.2564 30.6923L67.7821 32.0437ZM101.022 19.144H102.022V18.144H101.022V19.144ZM101.022 37V38H102.022V37H101.022ZM95.5503 37H94.5503V38H95.5503V37ZM95.5503 34.568H96.5503V31.4056L94.7321 33.9931L95.5503 34.568ZM93.2783 36.488L93.7255 37.3825L93.7334 37.3784L93.2783 36.488ZM86.5263 36.296L86.0169 37.1566L86.0235 37.1605L86.0301 37.1642L86.5263 36.296ZM84.0943 33.64L83.1998 34.0872L84.0943 33.64ZM83.2303 19.144V18.144H82.2303V19.144H83.2303ZM88.6703 19.144H89.6703V18.144H88.6703V19.144ZM89.5983 31.624L88.868 32.3072L88.868 32.3072L89.5983 31.624ZM95.5503 19.144V18.144H94.5503V19.144H95.5503ZM100.022 19.144V37H102.022V19.144H100.022ZM101.022 36H95.5503V38H101.022V36ZM96.5503 37V34.568H94.5503V37H96.5503ZM94.7321 33.9931C94.2815 34.6342 93.6555 35.1721 92.8231 35.5976L93.7334 37.3784C94.821 36.8225 95.7097 36.0804 96.3684 35.1429L94.7321 33.9931ZM92.831 35.5936C92.0444 35.9869 91.1544 36.192 90.1423 36.192V38.192C91.4341 38.192 92.6348 37.9278 93.7255 37.3824L92.831 35.5936ZM90.1423 36.192C88.9272 36.192 87.8973 35.9277 87.0224 35.4278L86.0301 37.1642C87.2459 37.859 88.6266 38.192 90.1423 38.192V36.192ZM87.0356 35.4354C86.1658 34.9207 85.4841 34.1837 84.9887 33.1928L83.1998 34.0872C83.8564 35.4003 84.796 36.434 86.0169 37.1566L87.0356 35.4354ZM84.9887 33.1928C84.4951 32.2057 84.2303 31.0101 84.2303 29.576H82.2303C82.2303 31.2565 82.5414 32.7703 83.1998 34.0872L84.9887 33.1928ZM84.2303 29.576V19.144H82.2303V29.576H84.2303ZM83.2303 20.144H88.6703V18.144H83.2303V20.144ZM87.6703 19.144V28.84H89.6703V19.144H87.6703ZM87.6703 28.84C87.6703 30.2052 88.0265 31.4077 88.868 32.3072L90.3285 30.9408C89.9326 30.5177 89.6703 29.8641 89.6703 28.84H87.6703ZM88.868 32.3072C89.7055 33.2024 90.8189 33.616 92.0943 33.616V31.616C91.2789 31.616 90.7284 31.3683 90.3285 30.9408L88.868 32.3072ZM92.0943 33.616C93.3841 33.616 94.511 33.2067 95.3525 32.3072L93.892 30.9408C93.4961 31.364 92.9377 31.616 92.0943 31.616V33.616ZM95.3525 32.3072C96.194 31.4077 96.5503 30.2052 96.5503 28.84H94.5503C94.5503 29.8641 94.2879 30.5177 93.892 30.9408L95.3525 32.3072ZM96.5503 28.84V19.144H94.5503V28.84H96.5503ZM95.5503 20.144H101.022V18.144H95.5503V20.144ZM114.905 32.36H115.905V31.36H114.905V32.36ZM114.905 37V38H115.905V37H114.905ZM107.481 35.56L106.818 36.309L106.826 36.3162L107.481 35.56ZM105.817 23.688H106.817V22.688H105.817V23.688ZM103.641 23.688H102.641V24.688H103.641V23.688ZM103.641 19.144V18.144H102.641V19.144H103.641ZM105.817 19.144V20.144H106.817V19.144H105.817ZM105.817 14.792V13.792H104.817V14.792H105.817ZM111.289 14.792H112.289V13.792H111.289V14.792ZM111.289 19.144H110.289V20.144H111.289V19.144ZM114.873 19.144H115.873V18.144H114.873V19.144ZM114.873 23.688V24.688H115.873V23.688H114.873ZM111.289 23.688V22.688H110.289V23.688H111.289ZM111.673 32.008L110.997 32.7452L110.997 32.7452L111.673 32.008ZM113.905 32.36V37H115.905V32.36H113.905ZM114.905 36H112.121V38H114.905V36ZM112.121 36C110.292 36 109.007 35.5586 108.135 34.8038L106.826 36.3162C108.173 37.4814 109.982 38 112.121 38V36ZM108.143 34.811C107.335 34.0959 106.817 32.8431 106.817 30.792H104.817C104.817 33.1356 105.408 35.0614 106.818 36.309L108.143 34.811ZM106.817 30.792V23.688H104.817V30.792H106.817ZM105.817 22.688H103.641V24.688H105.817V22.688ZM104.641 23.688V19.144H102.641V23.688H104.641ZM103.641 20.144H105.817V18.144H103.641V20.144ZM106.817 19.144V14.792H104.817V19.144H106.817ZM105.817 15.792H111.289V13.792H105.817V15.792ZM110.289 14.792V19.144H112.289V14.792H110.289ZM111.289 20.144H114.873V18.144H111.289V20.144ZM113.873 19.144V23.688H115.873V19.144H113.873ZM114.873 22.688H111.289V24.688H114.873V22.688ZM110.289 23.688V30.856H112.289V23.688H110.289ZM110.289 30.856C110.289 31.5206 110.446 32.2396 110.997 32.7452L112.348 31.2708C112.388 31.3071 112.289 31.258 112.289 30.856H110.289ZM110.997 32.7452C111.531 33.2348 112.271 33.36 112.953 33.36V31.36C112.715 31.36 112.553 31.3361 112.45 31.3078C112.349 31.28 112.332 31.2557 112.348 31.2708L110.997 32.7452ZM112.953 33.36H114.905V31.36H112.953V33.36Z" fill="#F0F35C"/>
<path d="M127.991 14.536V27.976C127.991 29.32 128.322 30.3547 128.983 31.08C129.645 31.8053 130.615 32.168 131.895 32.168C133.175 32.168 134.157 31.8053 134.839 31.08C135.522 30.3547 135.863 29.32 135.863 27.976V14.536H141.335V27.944C141.335 29.9493 140.909 31.6453 140.055 33.032C139.202 34.4187 138.05 35.464 136.599 36.168C135.17 36.872 133.57 37.224 131.799 37.224C130.029 37.224 128.439 36.8827 127.031 36.2C125.645 35.496 124.546 34.4507 123.735 33.064C122.925 31.656 122.519 29.9493 122.519 27.944V14.536H127.991ZM152.442 37.256C150.884 37.256 149.498 36.9893 148.282 36.456C147.066 35.9227 146.106 35.1973 145.402 34.28C144.698 33.3413 144.303 32.296 144.218 31.144H149.626C149.69 31.7627 149.978 32.264 150.49 32.648C151.002 33.032 151.631 33.224 152.378 33.224C153.06 33.224 153.583 33.096 153.946 32.84C154.33 32.5627 154.522 32.2107 154.522 31.784C154.522 31.272 154.255 30.8987 153.722 30.664C153.188 30.408 152.324 30.1307 151.13 29.832C149.85 29.5333 148.783 29.224 147.93 28.904C147.076 28.5627 146.34 28.04 145.722 27.336C145.103 26.6107 144.794 25.64 144.794 24.424C144.794 23.4 145.071 22.472 145.626 21.64C146.202 20.7867 147.034 20.1147 148.122 19.624C149.231 19.1333 150.543 18.888 152.058 18.888C154.298 18.888 156.058 19.4427 157.338 20.552C158.639 21.6613 159.386 23.1333 159.578 24.968H154.522C154.436 24.3493 154.159 23.8587 153.69 23.496C153.242 23.1333 152.644 22.952 151.898 22.952C151.258 22.952 150.767 23.08 150.426 23.336C150.084 23.5707 149.914 23.9013 149.914 24.328C149.914 24.84 150.18 25.224 150.714 25.48C151.268 25.736 152.122 25.992 153.274 26.248C154.596 26.5893 155.674 26.9307 156.506 27.272C157.338 27.592 158.063 28.1253 158.682 28.872C159.322 29.5973 159.652 30.5787 159.674 31.816C159.674 32.8613 159.375 33.8 158.778 34.632C158.202 35.4427 157.359 36.0827 156.25 36.552C155.162 37.0213 153.892 37.256 152.442 37.256Z" fill="#292929"/>
</svg>
