<svg width="236" height="18" viewBox="0 0 236 18" fill="none" xmlns="http://www.w3.org/2000/svg">
<line x1="0.00641012" y1="8.00002" x2="156.006" y2="9.00002" stroke="#666666" stroke-opacity="0.48" stroke-width="2"/>
<path d="M175.284 4.576V13H173.232V7.948L171.348 13H169.692L167.796 7.936V13H165.744V4.576H168.168L170.532 10.408L172.872 4.576H175.284ZM181.86 8.68C182.348 8.784 182.74 9.028 183.036 9.412C183.332 9.788 183.48 10.22 183.48 10.708C183.48 11.412 183.232 11.972 182.736 12.388C182.248 12.796 181.564 13 180.684 13H176.76V4.576H180.552C181.408 4.576 182.076 4.772 182.556 5.164C183.044 5.556 183.288 6.088 183.288 6.76C183.288 7.256 183.156 7.668 182.892 7.996C182.636 8.324 182.292 8.552 181.86 8.68ZM178.812 7.984H180.156C180.492 7.984 180.748 7.912 180.924 7.768C181.108 7.616 181.2 7.396 181.2 7.108C181.2 6.82 181.108 6.6 180.924 6.448C180.748 6.296 180.492 6.22 180.156 6.22H178.812V7.984ZM180.324 11.344C180.668 11.344 180.932 11.268 181.116 11.116C181.308 10.956 181.404 10.728 181.404 10.432C181.404 10.136 181.304 9.904 181.104 9.736C180.912 9.568 180.644 9.484 180.3 9.484H178.812V11.344H180.324ZM186.722 11.416H189.41V13H184.67V4.576H186.722V11.416ZM195.489 8.68C195.977 8.784 196.369 9.028 196.665 9.412C196.961 9.788 197.109 10.22 197.109 10.708C197.109 11.412 196.861 11.972 196.365 12.388C195.877 12.796 195.193 13 194.313 13H190.389V4.576H194.181C195.037 4.576 195.705 4.772 196.185 5.164C196.673 5.556 196.917 6.088 196.917 6.76C196.917 7.256 196.785 7.668 196.521 7.996C196.265 8.324 195.921 8.552 195.489 8.68ZM192.441 7.984H193.785C194.121 7.984 194.377 7.912 194.553 7.768C194.737 7.616 194.829 7.396 194.829 7.108C194.829 6.82 194.737 6.6 194.553 6.448C194.377 6.296 194.121 6.22 193.785 6.22H192.441V7.984ZM193.953 11.344C194.297 11.344 194.561 11.268 194.745 11.116C194.937 10.956 195.033 10.728 195.033 10.432C195.033 10.136 194.933 9.904 194.733 9.736C194.541 9.568 194.273 9.484 193.929 9.484H192.441V11.344H193.953ZM206.902 4.576V6.22H204.67V13H202.618V6.22H200.386V4.576H206.902ZM214.243 9.544C214.243 9.736 214.232 9.936 214.208 10.144H209.564C209.596 10.56 209.728 10.88 209.96 11.104C210.2 11.32 210.492 11.428 210.836 11.428C211.348 11.428 211.704 11.212 211.904 10.78H214.088C213.976 11.22 213.772 11.616 213.476 11.968C213.188 12.32 212.824 12.596 212.384 12.796C211.944 12.996 211.452 13.096 210.908 13.096C210.252 13.096 209.668 12.956 209.156 12.676C208.644 12.396 208.244 11.996 207.956 11.476C207.668 10.956 207.524 10.348 207.524 9.652C207.524 8.956 207.664 8.348 207.944 7.828C208.232 7.308 208.632 6.908 209.144 6.628C209.656 6.348 210.244 6.208 210.908 6.208C211.556 6.208 212.132 6.344 212.636 6.616C213.14 6.888 213.532 7.276 213.812 7.78C214.1 8.284 214.243 8.872 214.243 9.544ZM212.144 9.004C212.144 8.652 212.024 8.372 211.784 8.164C211.544 7.956 211.244 7.852 210.884 7.852C210.54 7.852 210.248 7.952 210.008 8.152C209.776 8.352 209.632 8.636 209.576 9.004H212.144ZM214.918 9.64C214.918 8.952 215.046 8.348 215.302 7.828C215.566 7.308 215.922 6.908 216.37 6.628C216.818 6.348 217.318 6.208 217.87 6.208C218.342 6.208 218.754 6.304 219.106 6.496C219.466 6.688 219.742 6.94 219.934 7.252V6.304H221.986V13H219.934V12.052C219.734 12.364 219.454 12.616 219.094 12.808C218.742 13 218.33 13.096 217.858 13.096C217.314 13.096 216.818 12.956 216.37 12.676C215.922 12.388 215.566 11.984 215.302 11.464C215.046 10.936 214.918 10.328 214.918 9.64ZM219.934 9.652C219.934 9.14 219.79 8.736 219.502 8.44C219.222 8.144 218.878 7.996 218.47 7.996C218.062 7.996 217.714 8.144 217.426 8.44C217.146 8.728 217.006 9.128 217.006 9.64C217.006 10.152 217.146 10.56 217.426 10.864C217.714 11.16 218.062 11.308 218.47 11.308C218.878 11.308 219.222 11.16 219.502 10.864C219.79 10.568 219.934 10.164 219.934 9.652ZM232.015 6.232C232.847 6.232 233.507 6.484 233.995 6.988C234.491 7.492 234.739 8.192 234.739 9.088V13H232.699V9.364C232.699 8.932 232.583 8.6 232.351 8.368C232.127 8.128 231.815 8.008 231.415 8.008C231.015 8.008 230.699 8.128 230.467 8.368C230.243 8.6 230.131 8.932 230.131 9.364V13H228.091V9.364C228.091 8.932 227.975 8.6 227.743 8.368C227.519 8.128 227.207 8.008 226.807 8.008C226.407 8.008 226.091 8.128 225.859 8.368C225.635 8.6 225.523 8.932 225.523 9.364V13H223.471V6.304H225.523V7.144C225.731 6.864 226.003 6.644 226.339 6.484C226.675 6.316 227.055 6.232 227.479 6.232C227.983 6.232 228.431 6.34 228.823 6.556C229.223 6.772 229.535 7.08 229.759 7.48C229.991 7.112 230.307 6.812 230.707 6.58C231.107 6.348 231.543 6.232 232.015 6.232Z" fill="#878787"/>
</svg>
