<svg width="309" height="78" viewBox="0 0 309 78" fill="none" xmlns="http://www.w3.org/2000/svg">
<rect x="1.5" y="1.5" width="79" height="75" stroke="#F0F35C" stroke-width="3"/>
<path d="M100.704 41.752C100.704 42.392 100.661 42.968 100.576 43.48H87.6156C87.7223 44.76 88.1703 45.7627 88.9596 46.488C89.749 47.2133 90.7196 47.576 91.8716 47.576C93.5356 47.576 94.7196 46.8613 95.4236 45.432H100.256C99.7436 47.1387 98.7623 48.5467 97.3116 49.656C95.861 50.744 94.0796 51.288 91.9676 51.288C90.261 51.288 88.725 50.9147 87.3596 50.168C86.0156 49.4 84.9596 48.3227 84.1916 46.936C83.445 45.5493 83.0716 43.9493 83.0716 42.136C83.0716 40.3013 83.445 38.6907 84.1916 37.304C84.9383 35.9173 85.9836 34.8507 87.3276 34.104C88.6716 33.3573 90.2183 32.984 91.9676 32.984C93.653 32.984 95.157 33.3467 96.4796 34.072C97.8236 34.7973 98.8583 35.832 99.5836 37.176C100.33 38.4987 100.704 40.024 100.704 41.752ZM96.0636 40.472C96.0423 39.32 95.6263 38.4027 94.8156 37.72C94.005 37.016 93.013 36.664 91.8396 36.664C90.7303 36.664 89.7916 37.0053 89.0236 37.688C88.277 38.3493 87.8183 39.2773 87.6476 40.472H96.0636ZM109.19 36.952V45.528C109.19 46.1253 109.328 46.5627 109.606 46.84C109.904 47.096 110.395 47.224 111.078 47.224H113.158V51H110.342C106.566 51 104.678 49.1653 104.678 45.496V36.952H102.566V33.272H104.678V28.888H109.19V33.272H113.158V36.952H109.19ZM134.373 51.224C132.282 51.224 130.362 50.7333 128.613 49.752C126.864 48.7707 125.477 47.416 124.453 45.688C123.429 43.9387 122.917 41.9653 122.917 39.768C122.917 37.592 123.429 35.64 124.453 33.912C125.477 32.1627 126.864 30.7973 128.613 29.816C130.362 28.8347 132.282 28.344 134.373 28.344C136.485 28.344 138.405 28.8347 140.133 29.816C141.882 30.7973 143.258 32.1627 144.261 33.912C145.285 35.64 145.797 37.592 145.797 39.768C145.797 41.9653 145.285 43.9387 144.261 45.688C143.258 47.416 141.882 48.7707 140.133 49.752C138.384 50.7333 136.464 51.224 134.373 51.224ZM134.373 47.224C135.717 47.224 136.901 46.9253 137.925 46.328C138.949 45.7093 139.749 44.8347 140.325 43.704C140.901 42.5733 141.189 41.2613 141.189 39.768C141.189 38.2747 140.901 36.9733 140.325 35.864C139.749 34.7333 138.949 33.8693 137.925 33.272C136.901 32.6747 135.717 32.376 134.373 32.376C133.029 32.376 131.834 32.6747 130.789 33.272C129.765 33.8693 128.965 34.7333 128.389 35.864C127.813 36.9733 127.525 38.2747 127.525 39.768C127.525 41.2613 127.813 42.5733 128.389 43.704C128.965 44.8347 129.765 45.7093 130.789 46.328C131.834 46.9253 133.029 47.224 134.373 47.224ZM165.866 33.272V51H161.354V48.76C160.778 49.528 160.021 50.136 159.082 50.584C158.165 51.0107 157.162 51.224 156.074 51.224C154.687 51.224 153.461 50.936 152.394 50.36C151.327 49.7627 150.485 48.8987 149.866 47.768C149.269 46.616 148.97 45.2507 148.97 43.672V33.272H153.45V43.032C153.45 44.44 153.802 45.528 154.506 46.296C155.21 47.0427 156.17 47.416 157.386 47.416C158.623 47.416 159.594 47.0427 160.298 46.296C161.002 45.528 161.354 44.44 161.354 43.032V33.272H165.866ZM174.766 36.024C175.342 35.0853 176.089 34.3493 177.006 33.816C177.945 33.2827 179.011 33.016 180.206 33.016V37.72H179.022C177.614 37.72 176.547 38.0507 175.822 38.712C175.118 39.3733 174.766 40.5253 174.766 42.168V51H170.286V33.272H174.766V36.024ZM207.137 35.576C207.137 36.7707 206.849 37.8907 206.273 38.936C205.718 39.9813 204.833 40.824 203.617 41.464C202.422 42.104 200.907 42.424 199.073 42.424H195.329V51H190.849V28.664H199.073C200.801 28.664 202.273 28.9627 203.489 29.56C204.705 30.1573 205.611 30.9787 206.209 32.024C206.827 33.0693 207.137 34.2533 207.137 35.576ZM198.881 38.808C200.118 38.808 201.035 38.5307 201.633 37.976C202.23 37.4 202.529 36.6 202.529 35.576C202.529 33.4 201.313 32.312 198.881 32.312H195.329V38.808H198.881ZM209.165 42.072C209.165 40.28 209.517 38.6907 210.221 37.304C210.947 35.9173 211.917 34.8507 213.133 34.104C214.371 33.3573 215.747 32.984 217.261 32.984C218.584 32.984 219.736 33.2507 220.717 33.784C221.72 34.3173 222.52 34.9893 223.117 35.8V33.272H227.629V51H223.117V48.408C222.541 49.24 221.741 49.9333 220.717 50.488C219.715 51.0213 218.552 51.288 217.229 51.288C215.736 51.288 214.371 50.904 213.133 50.136C211.917 49.368 210.947 48.2907 210.221 46.904C209.517 45.496 209.165 43.8853 209.165 42.072ZM223.117 42.136C223.117 41.048 222.904 40.12 222.477 39.352C222.051 38.5627 221.475 37.9653 220.749 37.56C220.024 37.1333 219.245 36.92 218.413 36.92C217.581 36.92 216.813 37.1227 216.109 37.528C215.405 37.9333 214.829 38.5307 214.381 39.32C213.955 40.088 213.741 41.0053 213.741 42.072C213.741 43.1387 213.955 44.0773 214.381 44.888C214.829 45.6773 215.405 46.2853 216.109 46.712C216.835 47.1387 217.603 47.352 218.413 47.352C219.245 47.352 220.024 47.1493 220.749 46.744C221.475 46.3173 222.051 45.72 222.477 44.952C222.904 44.1627 223.117 43.224 223.117 42.136ZM236.485 36.024C237.061 35.0853 237.808 34.3493 238.725 33.816C239.664 33.2827 240.73 33.016 241.925 33.016V37.72H240.741C239.333 37.72 238.266 38.0507 237.541 38.712C236.837 39.3733 236.485 40.5253 236.485 42.168V51H232.005V33.272H236.485V36.024ZM250.158 36.952V45.528C250.158 46.1253 250.297 46.5627 250.574 46.84C250.873 47.096 251.364 47.224 252.046 47.224H254.126V51H251.31C247.534 51 245.646 49.1653 245.646 45.496V36.952H243.534V33.272H245.646V28.888H250.158V33.272H254.126V36.952H250.158ZM267.173 33.016C269.285 33.016 270.991 33.688 272.293 35.032C273.594 36.3547 274.245 38.2107 274.245 40.6V51H269.765V41.208C269.765 39.8 269.413 38.7227 268.709 37.976C268.005 37.208 267.045 36.824 265.829 36.824C264.591 36.824 263.61 37.208 262.885 37.976C262.181 38.7227 261.829 39.8 261.829 41.208V51H257.349V33.272H261.829V35.48C262.426 34.712 263.183 34.1147 264.101 33.688C265.039 33.24 266.063 33.016 267.173 33.016ZM294.985 41.752C294.985 42.392 294.942 42.968 294.857 43.48H281.897C282.004 44.76 282.452 45.7627 283.241 46.488C284.03 47.2133 285.001 47.576 286.153 47.576C287.817 47.576 289.001 46.8613 289.705 45.432H294.537C294.025 47.1387 293.044 48.5467 291.593 49.656C290.142 50.744 288.361 51.288 286.249 51.288C284.542 51.288 283.006 50.9147 281.641 50.168C280.297 49.4 279.241 48.3227 278.473 46.936C277.726 45.5493 277.353 43.9493 277.353 42.136C277.353 40.3013 277.726 38.6907 278.473 37.304C279.22 35.9173 280.265 34.8507 281.609 34.104C282.953 33.3573 284.5 32.984 286.249 32.984C287.934 32.984 289.438 33.3467 290.761 34.072C292.105 34.7973 293.14 35.832 293.865 37.176C294.612 38.4987 294.985 40.024 294.985 41.752ZM290.345 40.472C290.324 39.32 289.908 38.4027 289.097 37.72C288.286 37.016 287.294 36.664 286.121 36.664C285.012 36.664 284.073 37.0053 283.305 37.688C282.558 38.3493 282.1 39.2773 281.929 40.472H290.345ZM302.735 36.024C303.311 35.0853 304.058 34.3493 304.975 33.816C305.914 33.2827 306.98 33.016 308.175 33.016V37.72H306.991C305.583 37.72 304.516 38.0507 303.791 38.712C303.087 39.3733 302.735 40.5253 302.735 42.168V51H298.255V33.272H302.735V36.024Z" fill="#151515"/>
<path d="M58.7944 27.664V50H54.3144V35.472L48.3304 50H44.9384L38.9224 35.472V50H34.4424V27.664H39.5304L46.6344 44.272L53.7384 27.664H58.7944ZM79.7036 40.752C79.7036 41.392 79.661 41.968 79.5756 42.48H66.6156C66.7223 43.76 67.1703 44.7627 67.9596 45.488C68.749 46.2133 69.7196 46.576 70.8716 46.576C72.5356 46.576 73.7196 45.8613 74.4236 44.432H79.2556C78.7436 46.1387 77.7623 47.5467 76.3116 48.656C74.861 49.744 73.0796 50.288 70.9676 50.288C69.261 50.288 67.725 49.9147 66.3596 49.168C65.0156 48.4 63.9596 47.3227 63.1916 45.936C62.445 44.5493 62.0716 42.9493 62.0716 41.136C62.0716 39.3013 62.445 37.6907 63.1916 36.304C63.9383 34.9173 64.9836 33.8507 66.3276 33.104C67.6716 32.3573 69.2183 31.984 70.9676 31.984C72.653 31.984 74.157 32.3467 75.4796 33.072C76.8236 33.7973 77.8583 34.832 78.5836 36.176C79.3303 37.4987 79.7036 39.024 79.7036 40.752ZM75.0636 39.472C75.0423 38.32 74.6263 37.4027 73.8156 36.72C73.005 36.016 72.013 35.664 70.8396 35.664C69.7303 35.664 68.7916 36.0053 68.0236 36.688C67.277 37.3493 66.8183 38.2773 66.6476 39.472H75.0636Z" fill="#F0F35C"/>
</svg>
