<svg width="201" height="51" viewBox="0 0 201 51" fill="none" xmlns="http://www.w3.org/2000/svg">
<rect x="26.5" y="0.5" width="72" height="50" stroke="#F0F35C"/>
<path d="M109.627 35.288C107.92 35.288 106.384 34.9147 105.019 34.168C103.654 33.4 102.576 32.3227 101.787 30.936C101.019 29.5493 100.635 27.9493 100.635 26.136C100.635 24.3227 101.03 22.7227 101.819 21.336C102.63 19.9493 103.728 18.8827 105.115 18.136C106.502 17.368 108.048 16.984 109.755 16.984C111.462 16.984 113.008 17.368 114.395 18.136C115.782 18.8827 116.87 19.9493 117.659 21.336C118.47 22.7227 118.875 24.3227 118.875 26.136C118.875 27.9493 118.459 29.5493 117.627 30.936C116.816 32.3227 115.707 33.4 114.299 34.168C112.912 34.9147 111.355 35.288 109.627 35.288ZM109.627 31.384C110.438 31.384 111.195 31.192 111.899 30.808C112.624 30.4027 113.2 29.8053 113.627 29.016C114.054 28.2267 114.267 27.2667 114.267 26.136C114.267 24.4507 113.819 23.16 112.923 22.264C112.048 21.3467 110.971 20.888 109.691 20.888C108.411 20.888 107.334 21.3467 106.459 22.264C105.606 23.16 105.179 24.4507 105.179 26.136C105.179 27.8213 105.595 29.1227 106.427 30.04C107.28 30.936 108.347 31.384 109.627 31.384ZM121.009 26.072C121.009 24.28 121.361 22.6907 122.065 21.304C122.79 19.9173 123.772 18.8507 125.009 18.104C126.246 17.3573 127.622 16.984 129.137 16.984C130.289 16.984 131.388 17.24 132.433 17.752C133.478 18.2427 134.31 18.904 134.929 19.736V11.32H139.473V35H134.929V32.376C134.374 33.2507 133.596 33.9547 132.593 34.488C131.59 35.0213 130.428 35.288 129.105 35.288C127.612 35.288 126.246 34.904 125.009 34.136C123.772 33.368 122.79 32.2907 122.065 30.904C121.361 29.496 121.009 27.8853 121.009 26.072ZM134.961 26.136C134.961 25.048 134.748 24.12 134.321 23.352C133.894 22.5627 133.318 21.9653 132.593 21.56C131.868 21.1333 131.089 20.92 130.257 20.92C129.425 20.92 128.657 21.1227 127.953 21.528C127.249 21.9333 126.673 22.5307 126.225 23.32C125.798 24.088 125.585 25.0053 125.585 26.072C125.585 27.1387 125.798 28.0773 126.225 28.888C126.673 29.6773 127.249 30.2853 127.953 30.712C128.678 31.1387 129.446 31.352 130.257 31.352C131.089 31.352 131.868 31.1493 132.593 30.744C133.318 30.3173 133.894 29.72 134.321 28.952C134.748 28.1627 134.961 27.224 134.961 26.136ZM160.585 17.272V35H156.073V32.76C155.497 33.528 154.739 34.136 153.801 34.584C152.883 35.0107 151.881 35.224 150.793 35.224C149.406 35.224 148.179 34.936 147.113 34.36C146.046 33.7627 145.203 32.8987 144.585 31.768C143.987 30.616 143.689 29.2507 143.689 27.672V17.272H148.169V27.032C148.169 28.44 148.521 29.528 149.225 30.296C149.929 31.0427 150.889 31.416 152.105 31.416C153.342 31.416 154.313 31.0427 155.017 30.296C155.721 29.528 156.073 28.44 156.073 27.032V17.272H160.585ZM163.853 26.136C163.853 24.3013 164.226 22.7013 164.973 21.336C165.72 19.9493 166.754 18.8827 168.077 18.136C169.4 17.368 170.914 16.984 172.621 16.984C174.818 16.984 176.632 17.5387 178.061 18.648C179.512 19.736 180.482 21.272 180.973 23.256H176.141C175.885 22.488 175.448 21.8907 174.829 21.464C174.232 21.016 173.485 20.792 172.589 20.792C171.309 20.792 170.296 21.2613 169.549 22.2C168.802 23.1173 168.429 24.4293 168.429 26.136C168.429 27.8213 168.802 29.1333 169.549 30.072C170.296 30.9893 171.309 31.448 172.589 31.448C174.402 31.448 175.586 30.6373 176.141 29.016H180.973C180.482 30.936 179.512 32.4613 178.061 33.592C176.61 34.7227 174.797 35.288 172.621 35.288C170.914 35.288 169.4 34.9147 168.077 34.168C166.754 33.4 165.72 32.3333 164.973 30.968C164.226 29.5813 163.853 27.9707 163.853 26.136ZM189.471 20.952V29.528C189.471 30.1253 189.61 30.5627 189.887 30.84C190.186 31.096 190.676 31.224 191.359 31.224H193.439V35H190.623C186.847 35 184.959 33.1653 184.959 29.496V20.952H182.847V17.272H184.959V12.888H189.471V17.272H193.439V20.952H189.471Z" fill="#151515"/>
<path d="M83.7929 19.576C83.7929 20.7707 83.5049 21.8907 82.9289 22.936C82.3742 23.9813 81.4889 24.824 80.2729 25.464C79.0782 26.104 77.5635 26.424 75.7289 26.424H71.9849V35H67.5049V12.664H75.7289C77.4569 12.664 78.9289 12.9627 80.1449 13.56C81.3609 14.1573 82.2675 14.9787 82.8649 16.024C83.4835 17.0693 83.7929 18.2533 83.7929 19.576ZM75.5369 22.808C76.7742 22.808 77.6915 22.5307 78.2889 21.976C78.8862 21.4 79.1849 20.6 79.1849 19.576C79.1849 17.4 77.9689 16.312 75.5369 16.312H71.9849V22.808H75.5369ZM91.4536 20.024C92.0296 19.0853 92.7763 18.3493 93.6936 17.816C94.6323 17.2827 95.699 17.016 96.8936 17.016V21.72H95.7096C94.3016 21.72 93.235 22.0507 92.5096 22.712C91.8056 23.3733 91.4536 24.5253 91.4536 26.168V35H86.9736V17.272H91.4536V20.024Z" fill="#F0F35C"/>
<path d="M13.0135 35.224C10.9228 35.224 9.00283 34.7333 7.2535 33.752C5.50417 32.7707 4.1175 31.416 3.0935 29.688C2.0695 27.9387 1.5575 25.9653 1.5575 23.768C1.5575 21.592 2.0695 19.64 3.0935 17.912C4.1175 16.1627 5.50417 14.7973 7.2535 13.816C9.00283 12.8347 10.9228 12.344 13.0135 12.344C15.1255 12.344 17.0455 12.8347 18.7735 13.816C20.5228 14.7973 21.8988 16.1627 22.9015 17.912C23.9255 19.64 24.4375 21.592 24.4375 23.768C24.4375 25.9653 23.9255 27.9387 22.9015 29.688C21.8988 31.416 20.5228 32.7707 18.7735 33.752C17.0242 34.7333 15.1042 35.224 13.0135 35.224ZM13.0135 31.224C14.3575 31.224 15.5415 30.9253 16.5655 30.328C17.5895 29.7093 18.3895 28.8347 18.9655 27.704C19.5415 26.5733 19.8295 25.2613 19.8295 23.768C19.8295 22.2747 19.5415 20.9733 18.9655 19.864C18.3895 18.7333 17.5895 17.8693 16.5655 17.272C15.5415 16.6747 14.3575 16.376 13.0135 16.376C11.6695 16.376 10.4748 16.6747 9.4295 17.272C8.4055 17.8693 7.6055 18.7333 7.0295 19.864C6.4535 20.9733 6.1655 22.2747 6.1655 23.768C6.1655 25.2613 6.4535 26.5733 7.0295 27.704C7.6055 28.8347 8.4055 29.7093 9.4295 30.328C10.4748 30.9253 11.6695 31.224 13.0135 31.224Z" fill="black"/>
<path d="M45.3971 17.272V35H40.8851V32.76C40.3091 33.528 39.5518 34.136 38.6131 34.584C37.6958 35.0107 36.6931 35.224 35.6051 35.224C34.2185 35.224 32.9918 34.936 31.9251 34.36C30.8585 33.7627 30.0158 32.8987 29.3971 31.768C28.7998 30.616 28.5011 29.2507 28.5011 27.672V17.272H32.9811V27.032C32.9811 28.44 33.3331 29.528 34.0371 30.296C34.7411 31.0427 35.7011 31.416 36.9171 31.416C38.1545 31.416 39.1251 31.0427 39.8291 30.296C40.5331 29.528 40.8851 28.44 40.8851 27.032V17.272H45.3971ZM54.2974 20.024C54.8734 19.0853 55.62 18.3493 56.5374 17.816C57.476 17.2827 58.5427 17.016 59.7374 17.016V21.72H58.5534C57.1454 21.72 56.0787 22.0507 55.3534 22.712C54.6494 23.3733 54.2974 24.5253 54.2974 26.168V35H49.8174V17.272H54.2974V20.024Z" fill="#F0F35C"/>
</svg>
