<svg width="102" height="54" viewBox="0 0 102 54" fill="none" xmlns="http://www.w3.org/2000/svg">
<rect x="0.5" y="0.5" width="50" height="49" stroke="#F3F821"/>
<path d="M15.6648 38.456L15.2571 39.3691L15.2639 39.3722L15.2708 39.3751L15.6648 38.456ZM12.8488 36.216L13.6637 35.6365L12.8488 36.216ZM11.8247 32.856V31.856H10.8247V32.856H11.8247ZM15.7288 32.856L16.7248 32.7675L16.6438 31.856H15.7288V32.856ZM16.8488 35.224L16.1656 35.9543L16.1714 35.9597L16.1772 35.965L16.8488 35.224ZM22.6408 35.256L23.2877 36.0185L23.2943 36.0129L23.3009 36.0072L22.6408 35.256ZM23.0247 31.064L22.2848 31.7367L22.293 31.7457L22.3014 31.7545L23.0247 31.064ZM21.3928 29.976L21.0213 30.9045L21.0318 30.9086L21.3928 29.976ZM18.7048 29.144L18.4489 30.1107L18.4538 30.112L18.7048 29.144ZM15.1528 27.992L14.7406 28.9031L14.7535 28.909L14.7666 28.9144L15.1528 27.992ZM12.8488 19.448L13.6808 20.0027H13.6808L12.8488 19.448ZM15.5368 17.24L15.9429 18.1538H15.9429L15.5368 17.24ZM24.8167 18.104L24.1935 18.8861L24.2002 18.8914L24.207 18.8966L24.8167 18.104ZM27.1208 22.52V23.52H28.2035L28.1176 22.4407L27.1208 22.52ZM23.0888 22.52L22.0919 22.5987L22.1646 23.52H23.0888V22.52ZM16.5928 20.376L17.2205 21.1544L17.2205 21.1544L16.5928 20.376ZM16.2087 24.376L15.4672 25.0469L15.484 25.0654L15.5016 25.0831L16.2087 24.376ZM20.4328 26.232L20.6982 25.2679L20.6927 25.2664L20.4328 26.232ZM24.0168 27.448L23.6126 28.3627L23.6203 28.3661L24.0168 27.448ZM26.3848 29.336L25.5848 29.936L25.5932 29.9472L25.6019 29.9582L26.3848 29.336ZM26.4488 35.896L25.5977 35.3709L25.5936 35.3775L25.5896 35.3842L26.4488 35.896ZM23.7928 38.328L24.2531 39.2158L24.2592 39.2126L23.7928 38.328ZM19.6968 38.224C18.3188 38.224 17.1117 37.9881 16.0587 37.5369L15.2708 39.3751C16.6072 39.9479 18.088 40.224 19.6968 40.224V38.224ZM16.0724 37.5429C15.0223 37.0741 14.2317 36.4352 13.6637 35.6365L12.0338 36.7955C12.8311 37.9168 13.9178 38.7712 15.2571 39.3691L16.0724 37.5429ZM13.6637 35.6365C13.1119 34.8605 12.8247 33.9472 12.8247 32.856H10.8247C10.8247 34.3248 11.2202 35.6515 12.0338 36.7955L13.6637 35.6365ZM11.8247 33.856H15.7288V31.856H11.8247V33.856ZM14.7327 32.9445C14.8383 34.1325 15.3123 35.1561 16.1656 35.9543L17.5319 34.4937C17.0625 34.0546 16.7899 33.4995 16.7248 32.7675L14.7327 32.9445ZM16.1772 35.965C17.0962 36.7978 18.3136 37.152 19.6968 37.152V35.152C18.6479 35.152 17.9666 34.8875 17.5203 34.483L16.1772 35.965ZM19.6968 37.152C21.1062 37.152 22.3467 36.817 23.2877 36.0185L21.9938 34.4935C21.5268 34.8897 20.8046 35.152 19.6968 35.152V37.152ZM23.3009 36.0072C24.2269 35.1934 24.6968 34.1276 24.6968 32.888H22.6968C22.6968 33.5684 22.4627 34.0812 21.9806 34.5048L23.3009 36.0072ZM24.6968 32.888C24.6968 31.9259 24.4005 31.057 23.7481 30.3735L22.3014 31.7545C22.545 32.0096 22.6968 32.3568 22.6968 32.888H24.6968ZM23.7647 30.3913C23.2218 29.7942 22.5426 29.3488 21.7537 29.0434L21.0318 30.9086C21.5656 31.1152 21.9744 31.3952 22.2848 31.7367L23.7647 30.3913ZM21.7641 29.0475C21.0667 28.7685 20.1239 28.4789 18.9557 28.176L18.4538 30.112C19.5896 30.4065 20.4388 30.6715 21.0214 30.9045L21.7641 29.0475ZM18.9606 28.1773C17.5345 27.7998 16.3984 27.4293 15.5389 27.0696L14.7666 28.9144C15.7418 29.3227 16.9737 29.7202 18.4489 30.1107L18.9606 28.1773ZM15.5649 27.0809C14.8286 26.7478 14.1882 26.2371 13.6414 25.5263L12.0561 26.7457C12.7893 27.6989 13.6849 28.4255 14.7406 28.9031L15.5649 27.0809ZM13.6414 25.5263C13.1734 24.9179 12.8888 24.0449 12.8888 22.808H10.8888C10.8888 24.3445 11.2441 25.6901 12.0561 26.7457L13.6414 25.5263ZM12.8888 22.808C12.8888 21.703 13.1621 20.7807 13.6808 20.0027L12.0167 18.8933C11.2554 20.0353 10.8888 21.353 10.8888 22.808H12.8888ZM13.6808 20.0027C14.206 19.2148 14.9474 18.5963 15.9429 18.1538L15.1306 16.3262C13.8221 16.9077 12.7715 17.7612 12.0167 18.8933L13.6808 20.0027ZM15.9429 18.1538C16.9439 17.7089 18.1343 17.472 19.5368 17.472V15.472C17.9098 15.472 16.4336 15.7471 15.1306 16.3262L15.9429 18.1538ZM19.5368 17.472C21.5195 17.472 23.0436 17.9697 24.1935 18.8861L25.44 17.3219C23.8592 16.0623 21.8634 15.472 19.5368 15.472V17.472ZM24.207 18.8966C25.3511 19.7766 25.9951 20.9796 26.1239 22.5993L28.1176 22.4407C27.9478 20.3058 27.0558 18.5647 25.4265 17.3114L24.207 18.8966ZM27.1208 21.52H23.0888V23.52H27.1208V21.52ZM24.0856 22.4413C23.9976 21.3255 23.4573 20.3921 22.57 19.666L21.3035 21.214C21.8242 21.6399 22.0519 22.0932 22.0919 22.5987L24.0856 22.4413ZM22.57 19.666C21.6441 18.9085 20.4727 18.576 19.1528 18.576V20.576C20.1368 20.576 20.8214 20.8195 21.3035 21.214L22.57 19.666ZM19.1528 18.576C17.9332 18.576 16.8422 18.8902 15.965 19.5976L17.2205 21.1544C17.666 20.7951 18.2817 20.576 19.1528 20.576V18.576ZM15.965 19.5976C15.0247 20.3559 14.6007 21.4357 14.6007 22.68H16.6007C16.6007 21.919 16.8381 21.4628 17.2205 21.1544L15.965 19.5976ZM14.6007 22.68C14.6007 23.576 14.8737 24.3909 15.4672 25.0469L16.9503 23.7051C16.7331 23.4651 16.6007 23.1493 16.6007 22.68H14.6007ZM15.5016 25.0831C16.0368 25.6182 16.6894 26.0293 17.4374 26.3285L18.1801 24.4715C17.6481 24.2587 17.2341 23.9871 16.9159 23.6689L15.5016 25.0831ZM17.4374 26.3285C18.1297 26.6054 19.0469 26.8945 20.1728 27.1976L20.6927 25.2664C19.5999 24.9722 18.7678 24.7066 18.1801 24.4715L17.4374 26.3285ZM20.1673 27.1961C21.6136 27.5944 22.757 27.9846 23.6126 28.3627L24.4209 26.5333C23.4419 26.1007 22.1959 25.6803 20.6982 25.2679L20.1673 27.1961ZM23.6203 28.3661C24.392 28.6993 25.0446 29.2158 25.5848 29.936L27.1847 28.736C26.4449 27.7496 25.5188 27.0074 24.4132 26.5299L23.6203 28.3661ZM25.6019 29.9582C26.0828 30.5632 26.3768 31.4404 26.3768 32.696H28.3768C28.3768 31.1356 28.0093 29.7728 27.1676 28.7138L25.6019 29.9582ZM26.3768 32.696C26.3768 33.6332 26.1233 34.5191 25.5977 35.3709L27.2998 36.4211C28.0116 35.2676 28.3768 34.0201 28.3768 32.696H26.3768ZM25.5896 35.3842C25.0988 36.2082 24.3597 36.8986 23.3263 37.4434L24.2592 39.2126C25.5725 38.5201 26.6041 37.5892 27.3079 36.4078L25.5896 35.3842ZM23.3324 37.4402C22.3503 37.9495 21.1495 38.224 19.6968 38.224V40.224C21.4014 40.224 22.9312 39.9011 24.2531 39.2158L23.3324 37.4402ZM47.7132 31.544V32.544H48.566L48.7007 31.702L47.7132 31.544ZM34.2412 31.544V30.544H33.1626L33.2441 31.6195L34.2412 31.544ZM35.8092 34.936L35.1366 35.6759L35.8092 34.936ZM43.4253 33.752V32.752H42.8036L42.5285 33.3095L43.4253 33.752ZM47.3613 33.752L48.3112 34.0645L48.7429 32.752H47.3613V33.752ZM44.4492 37.752L45.0433 38.5564L45.0454 38.5549L44.4492 37.752ZM34.7213 38.168L34.2191 39.0328L34.2273 39.0376L34.2356 39.0422L34.7213 38.168ZM31.5853 34.968L30.7048 35.4421L30.7092 35.4502L30.7137 35.4583L31.5853 34.968ZM31.5532 25.4L30.6728 24.9259L30.6701 24.9308L31.5532 25.4ZM34.6572 22.2L34.1716 21.3258L34.1657 21.3292L34.6572 22.2ZM43.7132 22.168L44.2001 21.2945H44.2001L43.7132 22.168ZM46.7533 25.24L45.8764 25.7208L45.8798 25.7269L46.7533 25.24ZM44.0332 28.6V29.6H45.0493L45.0331 28.5841L44.0332 28.6ZM42.5933 25.368L43.2469 24.6112H43.2469L42.5933 25.368ZM35.8733 25.368L36.5343 26.1184L36.5442 26.1095L35.8733 25.368ZM34.2733 28.6L33.281 28.476L33.1405 29.6H34.2733V28.6ZM46.8413 29.752C46.8413 30.3717 46.8012 30.915 46.7258 31.386L48.7007 31.702C48.796 31.1063 48.8413 30.455 48.8413 29.752H46.8413ZM47.7132 30.544H34.2412V32.544H47.7132V30.544ZM33.2441 31.6195C33.3677 33.251 33.9868 34.6307 35.1366 35.6759L36.4819 34.1961C35.7543 33.5346 35.3281 32.653 35.2384 31.4685L33.2441 31.6195ZM35.1366 35.6759C36.2741 36.71 37.6718 37.216 39.2653 37.216V35.216C38.128 35.216 37.2218 34.8687 36.4819 34.1961L35.1366 35.6759ZM39.2653 37.216C40.3869 37.216 41.4088 36.9805 42.2869 36.4604C43.169 35.9379 43.8429 35.1653 44.322 34.1945L42.5285 33.3095C42.1969 33.9814 41.7721 34.4408 41.2676 34.7396C40.759 35.0409 40.1063 35.216 39.2653 35.216V37.216ZM43.4253 34.752H47.3613V32.752H43.4253V34.752ZM46.4113 33.4395C45.9444 34.8591 45.1003 36.0232 43.8531 36.9491L45.0454 38.5549C46.6142 37.3901 47.7115 35.8876 48.3112 34.0645L46.4113 33.4395ZM43.8552 36.9476C42.6729 37.8207 41.1647 38.288 39.2653 38.288V40.288C41.5044 40.288 43.4523 39.7313 45.0433 38.5564L43.8552 36.9476ZM39.2653 38.288C37.7331 38.288 36.3884 37.9502 35.2069 37.2938L34.2356 39.0422C35.7421 39.8791 37.4267 40.288 39.2653 40.288V38.288ZM35.2234 37.3032C34.059 36.6271 33.1395 35.6914 32.4568 34.4777L30.7137 35.4583C31.567 36.9752 32.7382 38.1729 34.2191 39.0328L35.2234 37.3032ZM32.4657 34.4939C31.8087 33.2737 31.4653 31.8411 31.4653 30.168H29.4653C29.4653 32.1216 29.8685 33.889 30.7048 35.4421L32.4657 34.4939ZM31.4653 30.168C31.4653 28.4899 31.8001 27.0669 32.4364 25.8692L30.6701 24.9308C29.8558 26.4637 29.4653 28.2194 29.4653 30.168H31.4653ZM32.4337 25.8741C33.0943 24.6473 33.9969 23.7211 35.1488 23.0708L34.1657 21.3292C32.6722 22.1722 31.5055 23.3794 30.6728 24.9259L32.4337 25.8741ZM35.1429 23.0742C36.3207 22.4198 37.6858 22.08 39.2653 22.08V20.08C37.3887 20.08 35.6818 20.4868 34.1716 21.3258L35.1429 23.0742ZM39.2653 22.08C40.7792 22.08 42.0907 22.4085 43.2264 23.0415L44.2001 21.2945C42.7331 20.4769 41.0793 20.08 39.2653 20.08V22.08ZM43.2264 23.0415C44.3612 23.674 45.2404 24.5609 45.8764 25.7208L47.6301 24.7592C46.8155 23.2737 45.6679 22.1127 44.2001 21.2945L43.2264 23.0415ZM45.8798 25.7269C46.5107 26.8588 46.8413 28.1906 46.8413 29.752H48.8413C48.8413 27.9 48.4465 26.2238 47.6267 24.7531L45.8798 25.7269ZM45.0331 28.5841C45.0077 26.9819 44.4208 25.625 43.2469 24.6112L41.9396 26.1248C42.643 26.7323 43.0161 27.5301 43.0334 28.6159L45.0331 28.5841ZM43.2469 24.6112C42.1049 23.6249 40.7016 23.152 39.1053 23.152V25.152C40.2822 25.152 41.2043 25.4898 41.9396 26.1248L43.2469 24.6112ZM39.1053 23.152C37.61 23.152 36.2904 23.642 35.2023 24.6265L36.5442 26.1095C37.2481 25.4727 38.0832 25.152 39.1053 25.152V23.152ZM35.2122 24.6176C34.1054 25.5927 33.477 26.9077 33.281 28.476L35.2655 28.724C35.4108 27.5617 35.8491 26.722 36.5343 26.1184L35.2122 24.6176ZM34.2733 29.6H44.0332V27.6H34.2733V29.6Z" fill="white"/>
<path d="M58.5949 15.32V39H54.9469V15.32H58.5949ZM67.0324 15.32V39H63.3844V15.32H67.0324ZM87.9819 29.752C87.9819 30.4133 87.9392 31.0107 87.8539 31.544H74.3819C74.4885 32.952 75.0112 34.0827 75.9499 34.936C76.8885 35.7893 78.0405 36.216 79.4059 36.216C81.3685 36.216 82.7552 35.3947 83.5659 33.752H87.5019C86.9685 35.3733 85.9979 36.7067 84.5899 37.752C83.2032 38.776 81.4752 39.288 79.4059 39.288C77.7205 39.288 76.2059 38.9147 74.8619 38.168C73.5392 37.4 72.4939 36.3333 71.7259 34.968C70.9792 33.5813 70.6059 31.9813 70.6059 30.168C70.6059 28.3547 70.9685 26.7653 71.6939 25.4C72.4405 24.0133 73.4752 22.9467 74.7979 22.2C76.1419 21.4533 77.6779 21.08 79.4059 21.08C81.0699 21.08 82.5525 21.4427 83.8539 22.168C85.1552 22.8933 86.1685 23.9173 86.8939 25.24C87.6192 26.5413 87.9819 28.0453 87.9819 29.752ZM84.1739 28.6C84.1525 27.256 83.6725 26.1787 82.7339 25.368C81.7952 24.5573 80.6325 24.152 79.2459 24.152C77.9872 24.152 76.9099 24.5573 76.0139 25.368C75.1179 26.1573 74.5845 27.2347 74.4139 28.6H84.1739ZM95.2199 23.928C95.7532 23.032 96.4572 22.3387 97.3319 21.848C98.2279 21.336 99.2839 21.08 100.5 21.08V24.856H99.5719C98.1425 24.856 97.0545 25.2187 96.3079 25.944C95.5825 26.6693 95.2199 27.928 95.2199 29.72V39H91.5719V21.368H95.2199V23.928Z" fill="white"/>
</svg>
